<svg xmlns="http://www.w3.org/2000/svg" viewBox="0 0 512 512"><defs><style>.cls-1{fill:#4fb0d6}.cls-2{fill:#ececec}.cls-3{fill:#d6d4d4}.cls-4{fill:#fff}</style></defs><title>tele</title><g id="Слой_2" data-name="Слой 2"><g id="Слой_1-2" data-name="Слой 1"><path class="cls-1" d="M256 0c141.38 0 256 114.61 256 256S397.38 512 256 512 0 397.38 0 256 114.61 0 256 0z"/><path class="cls-2" d="M380.26 109.05a8.54 8.54 0 0 0-8.4-.68L96.78 236.43a13.45 13.45 0 0 0 .3 24.52l253.61 110.46a13.58 13.58 0 0 0 19-11.45L384 116.61a8.53 8.53 0 0 0-3.72-7.56z"/><path class="cls-3" d="M171.63 293.42L188.77 408l190.4-299.57-207.54 184.99z"/><path class="cls-4" d="M371.87 108.37L96.78 236.43a13.45 13.45 0 0 0 .3 24.52l74.56 32.47 207.54-185a8.53 8.53 0 0 0-7.3-.06z"/><path class="cls-2" d="M211.42 310.75L188.77 408l190.4-299.57-167.75 202.32z"/><path class="cls-4" d="M380.26 109.05a8.25 8.25 0 0 0-1.1-.62L211.42 310.75l139.27 60.66a13.58 13.58 0 0 0 19-11.45L384 116.61a8.53 8.53 0 0 0-3.72-7.56z"/></g></g></svg>