<svg xmlns="http://www.w3.org/2000/svg" viewBox="0 0 40 40"><defs><style>.cls-1{fill:#a8048f}.cls-2{fill:#fff}</style></defs><title>вибер</title><g id="Слой_2" data-name="Слой 2"><g id="Слой_1-2" data-name="Слой 1"><circle id="_Контур_" data-name="&amp;lt;Контур&amp;gt;" class="cls-1" cx="20" cy="20" r="20"/><path id="_Контур_2" data-name="&amp;lt;Контур&amp;gt;" class="cls-2" d="M20.72 9.18c5.9.89 8.63 3.64 9.38 9.47v.13c0 .53-.08 1.22.64 1.23s.66-.45.64-.91v-.41A11.1 11.1 0 0 0 20.89 7.92c-.43.06-1.31-.29-1.37.65-.03.64.71.53 1.2.61z"/><path id="_Контур_3" data-name="&amp;lt;Контур&amp;gt;" class="cls-2" d="M21.88 10.77c-.57-.07-1.32-.33-1.45.44s.69.73 1.23.85c3.65.8 4.92 2.1 5.52 5.64v.49c0 .41.13.79.77.69a.49.49 0 0 0 .47-.47v-.72c.07-3.39-2.9-6.49-6.54-6.92z"/><path id="_Контур_4" data-name="&amp;lt;Контур&amp;gt;" class="cls-2" d="M22.21 13.56c-.38 0-.75 0-.89.45-.21.59.23.74.68.8a2.62 2.62 0 0 1 2.43 2.56.86.86 0 0 0 .2.48.55.55 0 0 0 .49.19.65.65 0 0 0 .3-.1 1 1 0 0 0 .28-.88 3.9 3.9 0 0 0-3.49-3.5z"/><path id="_Контур_5" data-name="&amp;lt;Контур&amp;gt;" class="cls-2" d="M29.78 25.05c-.74-.58-1.52-1.1-2.3-1.64-1.55-1.06-3-1.15-4.11.57a1.82 1.82 0 0 1-2.5.58A11 11 0 0 1 15 19a3.36 3.36 0 0 1-.32-1.18 2 2 0 0 1 1-1.82A2.13 2.13 0 0 0 17 14.12c-.07-1.23-3.11-5.33-4.31-5.77a2.23 2.23 0 0 0-1.5 0c-2.82.93-4 3.2-2.87 5.89a32.58 32.58 0 0 0 2.12 4.23A31.2 31.2 0 0 0 25.6 31.25a8.1 8.1 0 0 0 1.23.34 5.6 5.6 0 0 0 4.61-3.44c.56-1.65-.66-2.31-1.66-3.1z"/></g></g></svg>