<svg xmlns="http://www.w3.org/2000/svg" viewBox="0 0 40 40"><defs><style>.cls-1{fill:#00be86}.cls-2{fill:#fff}</style></defs><title>воцап</title><g id="Слой_2" data-name="Слой 2"><g id="Слой_1-2" data-name="Слой 1"><circle id="_Контур_" data-name="&amp;lt;Контур&amp;gt;" class="cls-1" cx="20" cy="20" r="20"/><path class="cls-2" d="M32.17 19.4a11.63 11.63 0 0 0-23.24-.21v.51a11.42 11.42 0 0 0 1.67 6l-2.1 6.19 6.44-2A11.65 11.65 0 0 0 32.18 19.7c0-.1 0-.2-.01-.3zm-11.62 10a9.77 9.77 0 0 1-5.38-1.6L11.41 29l1.22-3.6a9.6 9.6 0 0 1-1.86-5.69v-.94a9.78 9.78 0 0 1 19.48.18v.76a9.75 9.75 0 0 1-9.7 9.69z"/><path id="_Контур_2" data-name="&amp;lt;Контур&amp;gt;" class="cls-2" d="M25.88 22c-.29-.14-1.69-.83-1.95-.92s-.45-.14-.64.14-.74.92-.9 1.11-.33.21-.62.07a7.79 7.79 0 0 1-2.3-1.4 8.49 8.49 0 0 1-1.59-2c-.17-.28 0-.44.12-.58s.29-.33.43-.5l.1-.14a3 3 0 0 0 .18-.34.52.52 0 0 0 0-.5c-.07-.14-.64-1.53-.88-2.1s-.48-.47-.64-.47h-.55a1.05 1.05 0 0 0-.76.35 3.16 3.16 0 0 0-1 2.36 3.51 3.51 0 0 0 .15 1 6.4 6.4 0 0 0 1 2 11.66 11.66 0 0 0 4.87 4.27c2.9 1.13 2.9.75 3.42.71a2.88 2.88 0 0 0 1.92-1.35 2.36 2.36 0 0 0 .17-1.35c-.06-.13-.25-.2-.53-.36z"/></g></g></svg>