<?xml version="1.0" standalone="no"?>
<!DOCTYPE svg PUBLIC "-//W3C//DTD SVG 1.1//EN" "http://www.w3.org/Graphics/SVG/1.1/DTD/svg11.dtd" >
<svg xmlns="http://www.w3.org/2000/svg" xmlns:xlink="http://www.w3.org/1999/xlink" version="1.1">
<metadata>
Created by FontForge 20161116 at Thu Jun 22 15:32:54 2017
 By Jimmy Warting
ProjectSoft &#38; STUDIONIONS
</metadata>
<defs>
<font id="StdFont" horiz-adv-x="1024" >
  <font-face 
    font-family="StdFont"
    font-weight="400"
    font-stretch="normal"
    units-per-em="1024"
    panose-1="0 0 0 0 0 0 0 0 0 0"
    ascent="960"
    descent="-64"
    bbox="-2 -64.3902 1026.06 960"
    underline-thickness="0"
    underline-position="0"
    unicode-range="U+0001-FFFD"
  />
<missing-glyph 
 />
    <glyph glyph-name=".notdef" unicode="&#xfffd;" 
 />
    <glyph glyph-name="glyph1" horiz-adv-x="0" 
d="M0 0v0v0v0z" />
    <glyph glyph-name="glyph1" horiz-adv-x="0" 
d="M0 0v0v0v0z" />
    <glyph glyph-name="uni0001" horiz-adv-x="0" 
d="M0 0v0v0v0z" />
    <glyph glyph-name="space" unicode=" " horiz-adv-x="512" 
d="M0 0v0v0v0z" />
    <glyph glyph-name="uniE900" unicode="&#xe900;" 
d="M1024 704l-388 -194q-8 28 -30.5 46t-52.5 18h-82q-30 0 -52.5 -18t-29.5 -46l-389 194v-512l388 194q8 -28 30.5 -46t52.5 -18h82q30 0 52.5 18t29.5 46l389 -194v512z" />
    <glyph glyph-name="uniE901" unicode="&#xe901;" 
d="M71 125v0v0q-10 0 -17.5 7.5t-7.5 17.5q0 5 2 9.5t6 7.5l50 51q3 3 7.5 5t9.5 2q11 0 18 -7.5t7 -17.5q0 -5 -2 -9.5t-5 -7.5l-51 -51q-3 -3 -7.5 -5t-9.5 -2v0v0v0zM210 146q-3 4 -7.5 6t-9.5 2t-9.5 -2t-7.5 -6l-169 -168q-3 -3 -5 -7.5t-2 -9.5q0 -11 7 -18t18 -7
q5 0 9.5 2t7.5 5l168 169q4 3 6 7.5t2 9.5t-2 9.5t-6 7.5v0zM247 75l-84 -84q-4 -4 -5.5 -8.5t-1.5 -9.5q0 -10 7 -17t17 -7q5 0 9.5 1.5t8.5 5.5l84 84q3 4 5 8.5t2 9.5q0 10 -7.5 17t-17.5 7q-5 0 -9.5 -2t-7.5 -5v0zM638 726q63 0 107.5 -44.5t44.5 -107.5
q0 -62 -44.5 -106.5t-107.5 -44.5t-107 44.5t-44 106.5q0 32 11.5 59.5t32.5 48.5q21 20 48.5 32t58.5 12v0v0v0zM711 647q-14 14 -32.5 22t-40.5 8q-42 0 -72 -30t-30 -73q0 -42 30 -72t72 -30q22 0 40.5 8t32.5 22t22 32.5t8 39.5q0 22 -8 40.5t-22 32.5v0zM1008 668
q-3 -10 -6 -19.5t-6 -18.5q0 -1 -0.5 -2t-0.5 -2q-20 -55 -50 -102t-68 -85v0l-1 -1h-1l-88 -75v-3.5v-2.5q0 -61 -15.5 -118t-44.5 -106t-69 -89.5t-89 -68.5q-4 -3 -7.5 -4t-7.5 -1q-8 0 -14.5 5t-9.5 13l-34 137l-73 -26q-7 -3 -15.5 -4.5t-18.5 -1.5q-20 0 -38 7.5
t-31 20.5l-135 135q-13 13 -20.5 31t-7.5 39q0 9 1.5 17.5t4.5 16.5l26 72l-136 34q-8 3 -13.5 9.5t-5.5 14.5q0 4 1 7l2 6q30 50 70.5 90.5t89.5 69.5t105.5 44.5t117.5 15.5h3h2l75 88v1q39 39 86 69t100 49l7 2q10 3 19.5 6t18.5 6q29 8 61 12t66 4q35 0 68.5 -4.5
t65.5 -13.5q4 -1 8.5 -5.5t6.5 -10.5q8 -30 12.5 -63.5t4.5 -67.5t-4.5 -66.5t-12.5 -64.5zM213 476l168 196q-44 -5 -84.5 -18.5t-76.5 -35t-66.5 -49.5t-54.5 -62zM215 295l48 77l-31 32l-23 -62q-2 -4 -2.5 -8t-0.5 -9q0 -8 2.5 -15.5t7.5 -13.5zM270 240l63 63l-34 34
l-48 -77zM324 186l76 49l-33 34l-62 -63zM468 167l-32 32l-76 -48q6 -4 13.5 -6.5t15.5 -2.5q5 0 9 0.5t8 2.5zM736 317l-196 -168l30 -115q34 24 62.5 55t50 66.5t35.5 76t18 84.5v1zM944 629l-251 251q-45 -18 -84.5 -44t-71.5 -59l-82 -95v0l-200 -232l259 -259l328 283
q32 32 57.5 70.5t43.5 81.5zM963 899q-24 6 -50.5 9t-53.5 3q-30 0 -59 -4t-57 -11l218 -214q6 25 10 54t4 59q0 27 -3.5 54t-9.5 53z" />
    <glyph glyph-name="uniE902" unicode="&#xe902;" 
d="M874 810q-36 36 -78 64t-88 47t-95.5 29t-100.5 10t-100.5 -10t-95.5 -29t-88 -47t-78 -64t-64 -78t-47 -88t-29 -95.5t-10 -100.5t10 -100.5t29 -95.5t47 -88t64 -78t78 -64t88 -47t95.5 -29t100.5 -10t100.5 10t95.5 29t88 47t78 64t64 78t47 88t29 95.5t10 100.5
t-10 100.5t-29 95.5t-47 88t-64 78v0zM844 116q-34 -33 -72 -58.5t-80 -43t-87.5 -26t-92.5 -8.5t-92.5 8.5t-87.5 26t-80 43t-72 58.5q-33 34 -58.5 72t-43 80t-26 87.5t-8.5 92.5t8.5 92.5t26 87.5t43 80t58.5 72q34 33 72 58.5t80 43t87.5 26t92.5 8.5t92.5 -8.5
t87.5 -26t80 -43t72 -58.5q33 -34 58.5 -72t43 -80t26 -87.5t8.5 -92.5t-8.5 -92.5t-26 -87.5t-43 -80t-58.5 -72v0zM867 650l-0.5 1t-1.5 1l-0.5 0.5l-0.5 0.5q-27 45 -64 82.5t-82 63.5l-0.5 0.5l-0.5 0.5h-0.5t-0.5 1q-47 26 -97.5 40.5t-106.5 14.5t-106.5 -14
t-95.5 -39l-1 -0.5t-1 -1.5l-0.5 -0.5l-0.5 -0.5q-45 -27 -82.5 -64t-63.5 -82l-0.5 -0.5l-0.5 -0.5v-0.5t-1 -0.5q-26 -46 -40.5 -97t-14.5 -107t14 -106.5t39 -95.5l0.5 -1t1.5 -1v-0.5t1 -0.5q27 -45 64 -82.5t82 -64.5l0.5 -0.5l0.5 -0.5h0.5h0.5q46 -26 97 -40t106 -14
t106.5 14t95.5 40h0.5h0.5q1 0 1.5 0.5l0.5 0.5q45 27 82.5 64t62.5 83l0.5 0.5t1.5 0.5v1t1 1q26 45 40 96t14 106q2 56 -12 106.5t-39 95.5v0zM838 285l-32 20q-7 4 -15.5 2t-13.5 -10t-2.5 -16.5t10.5 -12.5l32 -20q-21 -30 -47 -56.5t-57 -46.5l-19 32q-5 7 -13.5 9.5
t-16.5 -2.5q-7 -4 -9.5 -12.5t2.5 -16.5l19 -32q-33 -16 -68.5 -26t-72.5 -13v38q0 8 -6.5 14.5t-15.5 6.5q-8 0 -14.5 -6.5t-6.5 -14.5v-38q-39 2 -74.5 12.5t-66.5 26.5l19 32q5 8 2.5 16.5t-10.5 12.5q-7 5 -15.5 2.5t-13.5 -9.5l-19 -32q-31 20 -57.5 46.5t-46.5 56.5
l32 20q8 4 10 12.5t-2 16.5q-5 8 -13.5 10t-16.5 -2l-32 -20q-16 33 -25.5 68.5t-12.5 72.5h37q9 0 15.5 6.5t6.5 15.5t-6.5 15.5t-15.5 6.5h-37q2 38 12 73.5t26 67.5l32 -20q3 -2 5.5 -2h4.5q6 0 11.5 2.5t8.5 7.5q4 8 2 16.5t-10 12.5l-32 20q20 30 46.5 56.5t57.5 46.5
l19 -32q3 -4 8 -7t11 -3q3 0 5.5 1t4.5 2q8 4 10.5 12.5t-2.5 16.5l-19 32q32 16 67.5 26t73.5 13v-38q0 -8 6.5 -14.5t14.5 -6.5q9 0 15.5 6.5t6.5 14.5v38q38 -2 73.5 -12.5t67.5 -26.5l-19 -32q-5 -8 -2.5 -16.5t9.5 -12.5q3 -2 6 -2.5t5 -0.5q5 0 10.5 3t8.5 7l19 32
q31 -20 57 -46.5t47 -56.5l-32 -20q-8 -4 -10.5 -12.5t2.5 -16.5q3 -5 8 -7.5t11 -2.5q3 0 5.5 0.5t4.5 1.5l32 20q17 -33 26.5 -68.5t12.5 -72.5h-37q-9 0 -15.5 -6.5t-6.5 -15.5t6.5 -15.5t15.5 -6.5h37q-3 -37 -13 -73t-26 -68v0v0zM681 307l-114 114v0v1v1t1 1
q1 1 1.5 2.5t1.5 2.5v0.5v0.5v1.5t1 1.5v0.5v0.5v2t1 2v0v0v2v2v0.5v0.5v2v2v0v0v0v0v144q0 25 -17.5 43t-42.5 18t-42.5 -18t-17.5 -43v-83h-133q-25 0 -42.5 -17.5t-17.5 -42.5t17.5 -42.5t42.5 -17.5h192q7 0 13.5 1t12.5 4l114 -114q2 -3 6 -4.5t8 -1.5q3 0 7 1.5t7 4.5
q6 6 6.5 14t-5.5 14v0v0zM320 429q-8 0 -13.5 5.5t-5.5 13.5t5.5 13.5t13.5 5.5h132v-19q0 -5 0.5 -9.5t1.5 -9.5h-134zM531 448v0v0v-1.5v-1.5v0v-1v-0.5v-0.5q-1 -2 -1.5 -4t-2.5 -3l-0.5 -0.5l-0.5 -0.5q-3 -3 -6.5 -4.5t-7.5 -1.5q-8 0 -13.5 5.5t-5.5 13.5v40v0v0v0v0
v103q0 8 5.5 14t13.5 6t13.5 -6t5.5 -14v-143v0z" />
    <glyph glyph-name="uniE903" unicode="&#xe903;" 
d="M967 883h-910q-24 0 -40.5 -16.5t-16.5 -39.5v-598q0 -23 16.5 -39.5t40.5 -16.5h343v-4q0 -44 -31 -75t-75 -31q-10 0 -16.5 -7t-6.5 -16t6.5 -16t16.5 -7h1h1.5h1.5h1h1h424h1h1h1.5h1.5h1q10 0 16.5 7t6.5 16t-6.5 16t-16.5 7q-44 0 -75 31t-31 75v4h343v0v0
q24 0 40.5 16.5t16.5 39.5v598q0 23 -16.5 39.5t-40.5 16.5v0zM401 62q21 21 32.5 48.5t11.5 58.5v0v0v0v4h133v-4v0v0q0 -31 12 -58.5t33 -48.5h-222zM979 229q0 -4 -3.5 -7.5t-8.5 -3.5v0v0h-361h-2.5h-2.5h-2.5h-2.5h-168h-3h-2h-2.5h-2.5h-361q-5 0 -8.5 3.5t-3.5 7.5
v130h934v-130zM979 404h-934v422v0v0q0 5 3.5 8.5t8.5 3.5h910q5 0 8.5 -3.5t3.5 -8.5v-422zM979 404l-434 -115q0 -13 -9 -22t-22 -9q-12 0 -21 9t-9 22q0 12 9 21t21 9q13 0 22 -9t9 -21z" />
    <glyph glyph-name="uniE904" unicode="&#xe904;" 
d="M932 826h-129v111q0 10 -7 16.5t-16 6.5h-536q-9 0 -16 -6.5t-7 -16.5v-111h-128q-9 0 -16 -7t-7 -16q0 -79 44 -144.5t115 -95.5q9 -39 28.5 -74t47 -63t62 -48t73.5 -30q3 -39 -20.5 -72t-63.5 -43v0h-1h-1h-1v0h-1h-0.5h-0.5h-1h-1v0h-1h-0.5t-0.5 -1v0h-1l-1 -0.5
t-1 -1.5v0v0h-0.5t-0.5 -1v0v0v-0.5t-1 -0.5v0v0l-0.5 -0.5t-1.5 -0.5v-0.5v-1.5v-0.5v-0.5v0v-1v-1v-1v0v-1v-0.5v-0.5v0v-1v-1v-1v0v-1v-0.5v-0.5v0v0v-1.5v-1.5v0v0v0v0v0v-68h-64q-9 0 -16 -6.5t-7 -16.5v-160q0 -9 7 -16t16 -7h480q10 0 17 7t7 16v159q0 10 -7 16.5
t-17 6.5h-64v69q0 5 -1.5 9t-4.5 7v0v0l-0.5 0.5l-0.5 0.5v0v0l-0.5 0.5l-0.5 0.5v0v0l-1 0.5l-1 0.5v0v0l-0.5 0.5t-0.5 1.5v0v0h-0.5t-0.5 1v0v0h-1.5h-1.5v0v0q-40 9 -64 42.5t-20 72.5q39 10 73 30t61 48t46 63t28 74q72 30 115.5 95.5t43.5 144.5q-5 9 -12.5 16
t-15.5 7v0v0zM116 780h105v-152v0v0v-4.5v-5.5q-43 25 -71 68t-34 94v0zM730 96v-114h-434v114h434zM644 187v-46h-261v46h261zM444 233q5 5 9.5 10.5t8.5 11.5q13 19 18.5 40.5t5.5 43.5q7 -1 14 -1h13h15t13 1q0 -30 11.5 -57.5t31.5 -48.5h-140v0zM756 628
q0 -50 -19 -94.5t-52.5 -77.5t-78 -52.5t-94.5 -19.5q-51 0 -95.5 19.5t-77.5 52.5t-52 77.5t-19 94.5v286h490v-286h-2zM803 618v5.5v4.5v0v0v152h105q-6 -51 -34 -94t-71 -68v0zM584 61h-142q-10 0 -16.5 -6.5t-6.5 -16.5q0 -9 6.5 -16t16.5 -7h142q9 0 16 7t7 16
q0 10 -7 16.5t-16 6.5v0zM650 709q-2 6 -7 10.5t-11 4.5l-68 11l-30 61q-3 6 -8.5 9.5t-12.5 3.5q-6 0 -11.5 -3.5t-8.5 -9.5l-31 -61l-68 -11q-6 0 -11 -4.5t-7 -10.5t0 -12.5t7 -10.5l48 -47l-11 -68q-1 -7 1.5 -12.5t7.5 -9.5t11.5 -4.5t12.5 3.5l60 32l60 -32
q3 -1 5.5 -2t5.5 -1q4 0 7 1t7 3q5 4 7.5 10t1.5 12l-12 68l49 47q5 5 6.5 11t-0.5 12v0v0zM556 662q-4 -4 -6 -9.5t-1 -11.5l7 -33l-31 15q-3 1 -5.5 2t-4.5 1q-3 0 -6 -1t-5 -2l-30 -15l6 33q1 6 -1 11.5t-5 9.5l-25 24l35 5q6 1 10.5 4t5.5 9l16 31l15 -31q3 -5 7.5 -8.5
t9.5 -4.5l34 -5l-26 -24v0z" />
    <glyph glyph-name="uniE905" unicode="&#xe905;" horiz-adv-x="764" 
d="M764 726v1v1v0v0.5v1.5v0l-1 2l-1 1l-1 2v1l-1 1l-218 218l-1 1l-4 2l-2 1h-2l-3 1h-471q-24 0 -41.5 -17.5t-17.5 -41.5v-906q0 -24 17.5 -41.5t41.5 -17.5h646q24 0 41.5 17.5t17.5 41.5v729v1.5v0.5v0zM550 883l138 -137h-123q-6 0 -10.5 4.5t-4.5 10.5v122zM719 -5
q0 -6 -4 -10t-10 -4h-646q-6 0 -10 4t-4 10v906q0 6 4 10t10 4h447v-154q0 -25 17 -42t42 -17h154v-707zM422 578h217q10 0 16.5 -6.5t6.5 -15.5t-6.5 -15.5t-16.5 -6.5h-217q-9 0 -16 6.5t-7 15.5t7 15.5t16 6.5zM422 425q-9 0 -16 6.5t-7 15.5t7 16t16 7h91q9 0 15.5 -7
t6.5 -16t-6.5 -15.5t-15.5 -6.5h-91zM169 495q-3 4 -4.5 8t-1.5 8q0 9 6.5 16t15.5 7q5 0 9 -2t7 -5l22 -23l42 42q3 3 7 5t9 2q9 0 15.5 -6.5t6.5 -16.5q0 -4 -1.5 -8t-4.5 -7l-58 -58q-3 -3 -7 -4.5t-8 -1.5v0q-5 0 -9 1.5t-7 4.5zM342 633h-218q-9 0 -15.5 -6.5
t-6.5 -16.5v-217q0 -9 6.5 -15.5t15.5 -6.5v0v0h218q9 0 15.5 6.5t6.5 15.5v218q0 9 -6.5 15.5t-15.5 6.5v0v0v0zM319 415h-172v173h172v-173zM662 223q0 -9 -6.5 -15.5t-15.5 -6.5h-218q-9 0 -15.5 6.5t-6.5 15.5t6.5 16t15.5 7h218v0v0q9 0 15.5 -6.5t6.5 -15.5v-1z
M536 115q0 -9 -6.5 -15.5t-16.5 -6.5h-91q-9 0 -16 6.5t-7 15.5q0 10 7 16.5t16 6.5h91v0v0q10 0 16.5 -6.5t6.5 -16.5v0v0v0zM342 300h-218q-9 0 -15.5 -6.5t-6.5 -15.5v-218q0 -9 6.5 -15.5t15.5 -6.5v0v0h218q9 0 15.5 6.5t6.5 16.5v217q0 9 -6.5 15.5t-15.5 6.5v0v0v0z
M319 83h-172v173h172v-173z" />
    <glyph glyph-name="uniE906" unicode="&#xe906;" 
d="M501 161h61q8 1 15 4t13 8q4 5 6.5 11.5t2.5 14.5v0v0q0 1 4 43t32 50q29 9 64 -39t73 -74q29 -19 48.5 -19.5l19.5 -0.5l137 2l31.5 9t6.5 51l-21 31.5t-81 84.5q-64 59 -56 79.5t85 122.5q47 62 66.5 100.5t13.5 55.5q-5 16 -29 15.5l-24 -0.5l-154 -1h-2h-2
q-4 0 -8 -1t-8 -3q-4 -3 -8 -7t-6 -9q-14 -35 -28.5 -65t-30.5 -58q-50 -83 -73.5 -99t-31.5 -11q-19 13 -19.5 44.5t-0.5 57.5q0 84 2.5 122.5t-35.5 47.5q-14 4 -29.5 6t-31.5 2h-6t-5 -1q-41 0 -74.5 -1.5t-53.5 -10.5q-13 -7 -21 -17.5t-2 -11.5q14 -1 25.5 -7t20.5 -15
q12 -16 13.5 -42.5l1.5 -26.5l1 -68t-22 -80q-16 -8 -40.5 15t-69.5 101q-14 23 -27.5 50.5t-25.5 55.5q-4 10 -7.5 15t-7.5 9q-5 3 -11 5.5t-12 3.5h-147l-12 -1.5t-18 -9.5q-6 -7 -3 -16l3 -9l20 -43.5t53.5 -106t77.5 -131t93 -118.5q45 -46 90 -69.5t81.5 -33.5
t59.5 -10.5l23 -0.5v0z" />
    <glyph glyph-name="uniE907" unicode="&#xe907;" 
d="M826 960h-628q-41 0 -77 -15.5t-63 -42.5t-42.5 -63t-15.5 -77v-628q0 -41 15.5 -77t42.5 -63t63 -42.5t77 -15.5h628q41 0 77 15.5t63 42.5t42.5 63t15.5 77v628q0 41 -15.5 77t-42.5 63t-63 42.5t-77 15.5v0zM888 845h23v-169h-171l-1 169h149zM512 619q107 0 139 -71
t32 -100q0 -71 -50 -121t-121 -50t-121 50t-50 121q0 29 32 100t139 71v0zM912 146q0 -41 -29 -69.5t-69 -28.5h-605q-41 0 -70 28.5t-29 69.5v416h143q-10 -25 -15.5 -54t-5.5 -60q0 -58 22 -109t60 -89t89 -60t109 -22t109 22t89 60t60 89t22 109q0 31 -5.5 60t-16.5 56
l142 -2v-416v0z" />
    <glyph glyph-name="uniE908" unicode="&#xe908;" 
d="M1024 756q-26 -12 -56.5 -20.5t-62.5 -11.5q31 18 54.5 47t35.5 64q-28 -16 -61 -28.5t-69 -19.5q-31 30 -70.5 47t-84.5 17h-0.5h-0.5h-1.5h-1.5q-42 0 -79.5 -16t-65.5 -43.5t-44.5 -64.5t-17.5 -79v-1.5v-0.5q0 -12 1.5 -23.5t4.5 -22.5q-66 3 -127 19.5t-116 44
t-103 65.5t-87 84q-14 -21 -21.5 -47t-7.5 -54v0v0q0 -54 25.5 -98.5t67.5 -71.5q-26 1 -50.5 7.5t-45.5 18.5l1 -3q1 -75 49 -131t118 -69q-11 -4 -25 -5.5t-29 -1.5v0v0v0v0q-10 0 -20 1l-20 2q23 -62 76 -101.5t121 -39.5q-53 -41 -119.5 -64.5t-139.5 -23.5h-1.5h-0.5v0
v0q-13 0 -26 1l-26 2q35 -21 73 -38t79 -29t83.5 -18t87.5 -6h0.5h0.5q145 0 256.5 52.5t187.5 136t115 187t39 204.5v26q31 22 56.5 48t46.5 56z" />
    <glyph glyph-name="uniE909" unicode="&#xe909;" 
d="M892 742l-70 70q-6 5 -12.5 7.5t-13.5 2.5t-14 -2.5t-12 -7.5l-56 -56l122 -122l56 56q11 10 11 25.5t-11 26.5zM351 394l122 -122l337 336l-123 122zM324 368l-26 -148l149 26zM662 154h-461v460h326l80 80h-434q-21 0 -36.5 -15t-15.5 -36v-518q0 -21 15.5 -36
t36.5 -15h518q21 0 36 15t15 36v370l-80 -80v-261v0z" />
    <glyph glyph-name="uniE90A" unicode="&#xe90a;" 
d="M541 786h106v-220h-106v220zM883 763v1l-53 53q-4 4 -8.5 6t-9.5 2h-1v0h-91v0v0h-2v0q-2 -1 -4 -1.5t-4 -2.5t-2.5 -4t-0.5 -4h-1v-259v0q0 -10 -7 -17t-17 -7l-353 1q-9 0 -16 6.5t-7 16.5v0v259h-1q0 2 -1 4l-2 4q-3 2 -6 3t-6 1v0h-132q-11 0 -18 -7t-7 -18v0v-704
q0 -11 7 -18t18 -7v0h77v337v0v0v1v0q0 9 6 15.5t14 7.5v0h1q1 0 2 0.5l1 0.5h506q10 -1 16.5 -7.5t7.5 -16.5v0v-338h77q11 0 18 7t7 18v649v0v0q0 6 -2 10.5t-6 7.5v0z" />
    <glyph glyph-name="uniE90B" unicode="&#xe90b;" 
d="M528 865q-48 0 -94.5 -11t-88.5 -31.5t-79 -50.5t-66 -67l-119 69l-1 -396l343 198l-110 64q40 45 96.5 71t118.5 26q59 0 111.5 -23t91.5 -62t62 -91.5t23 -111.5q0 -60 -23 -112.5t-62 -91.5t-91.5 -61.5t-111.5 -22.5v-128q86 0 161.5 32.5t132 89t89.5 132.5t33 162
t-33 161.5t-89.5 132t-132 89.5t-161.5 33v0z" />
    <glyph glyph-name="uniE90C" unicode="&#xe90c;" 
d="M940 709q7 0 18.5 -1.5t18.5 -8.5q14 -14 14 -32.5t-14 -32.5l-437 -428q-14 -14 -32.5 -14t-32.5 14l-419 419q-14 14 -14 32.5t14 32.5t32.5 14t32.5 -14l391 -391l391 391q7 7 15 13t22 6v0z" />
    <glyph glyph-name="uniE90D" unicode="&#xe90d;" 
d="M726 -27q-7 0 -18.5 1.5t-18.5 8.5l-419 437q-14 14 -14 32.5t14 32.5l419 419q14 14 32.5 14t32.5 -14t14 -32.5t-14 -32.5l-391 -391l391 -391q14 -14 14 -32.5t-14 -32.5q-7 -7 -14 -13t-14 -6v0z" />
    <glyph glyph-name="uniE90E" unicode="&#xe90e;" 
d="M307 -27q-7 0 -18.5 1.5t-18.5 8.5q-14 14 -14 32.5t14 32.5l391 391l-391 400q-14 14 -14 32.5t14 32.5t32.5 14t32.5 -14l428 -428q7 -7 8.5 -15t1.5 -22t-6 -17.5t-13 -10.5l-419 -419q-7 -7 -14 -13t-14 -6v0z" />
    <glyph glyph-name="uniE90F" unicode="&#xe90f;" 
d="M84 187q-7 0 -18.5 1.5t-18.5 8.5q-14 14 -14 32.5t14 32.5l428 428q14 14 32.5 14t32.5 -14l419 -419q14 -14 14 -32.5t-14 -32.5t-32.5 -14t-32.5 14l-382 391l-391 -391q-7 -7 -15 -13t-22 -6v0z" />
    <glyph glyph-name="uniE910" unicode="&#xe910;" 
d="M372 741q31 25 64.5 48.5t75.5 24.5q62 6 123.5 -16.5t97.5 -76.5q25 -35 41 -74.5t25.5 -81t14.5 -84.5t6 -85q1 -41 -5.5 -81t-19 -79t-31 -75t-41.5 -70q2 22 -8 64.5t-28 -4.5q-12 -28 -38.5 -42.5t-5.5 -49.5q4 -46 48 -52.5t76 -25.5q23 -8 45.5 -20t47.5 -8
q34 0 67.5 -1t66.5 2q17 8 14 26t-1 33v228v228v228v228q-5 22 -25.5 19t-36.5 -1h-224.5h-224.5h-224h-225q-28 4 -29 -19t-1 -41v-227v-228v-228v-227q3 -22 24 -20.5t37 0.5h45h45q39 24 81.5 40.5t87.5 28.5q19 28 20.5 64t-37.5 49q-20 12 -40.5 43.5t-27.5 32.5
q2 -25 11.5 -49.5t27.5 -42.5q-46 31 -77 78.5t-35 104.5q-3 42 -2 85t7 85t17 83.5t30 80.5q21 40 57.5 71t83.5 34v0z" />
    <glyph glyph-name="uniE911" unicode="&#xe911;" 
d="M476 902q-34 1 -72 -6t-79 -23q-70 -31 -114.5 -70.5t-65 -86.5t-17 -102.5t30.5 -118.5q-13 -97 1.5 -167.5t48.5 -122.5t84 -88.5t107 -65.5v-43q4 -12 11.5 -18.5t19.5 -7.5h140q13 6 18.5 13t8.5 15l1 40q133 58 186.5 108t73.5 113q19 64 18.5 138t-16.5 129
q51 26 62.5 61t3 69t-28 63t-31.5 44q-47 53 -102 66t-95 -23q-41 38 -89 60t-105 24v0zM437 669q16 -69 71.5 -104.5t115 -63t105 -59.5t41.5 -95q-12 -47 -31 -92.5t-52 -80.5t-84 -54.5t-126 -13.5q-63 4 -113 30t-84.5 68.5t-51.5 98.5t-13 121q2 48 25 87t55.5 69
t70.5 52t71 37zM678 426q-15 -28 -56.5 -6t-62.5 -33q42 -9 70.5 -8l28.5 1l15 12t5 34v0zM288 428q15 -27 57 -5.5t63 -32.5q-42 -9 -70.5 -8.5l-28.5 0.5l-15.5 12t-5.5 34v0z" />
    <glyph glyph-name="uniE912" unicode="&#xe912;" 
d="M102 -46l4.5 62t18.5 144.5t41.5 164t73.5 120.5q63 -59 123 -89t121 -30.5t125.5 29.5t137.5 90q47 -40 78.5 -121.5t51 -164t28 -144l8.5 -61.5h-811zM768 691q0 -56 -21 -104.5t-58 -85t-86.5 -58t-105.5 -21.5t-105.5 21.5t-86.5 58t-58.5 85t-21.5 104.5t21.5 105
t58.5 85.5t86.5 57.5t105.5 21t105.5 -21t86.5 -57.5t58 -85.5t21 -105z" />
    <glyph glyph-name="uniE913" unicode="&#xe913;" 
d="M87 -25q-6 0 -16 5t-16 11q-12 12 -12 31.5t12 31.5l859 851q12 12 31.5 12t31.5 -12t12 -31.5t-12 -31.5l-867 -851q-6 -6 -11.5 -11t-11.5 -5v0zM937 -25q-6 0 -15.5 5t-15.5 11l-851 859q-12 12 -12 31.5t12 31.5t31.5 12t31.5 -12l859 -859q12 -12 12 -31.5
t-12 -31.5q-12 -6 -20 -11t-20 -5v0z" />
    <glyph glyph-name="uniE914" unicode="&#xe914;" 
d="M17 944l1 -822q3 -13 10 -17t13 -6l333 5q6 -33 -19.5 -70.5t-27.5 -70.5l369 2q0 36 -23.5 66.5t-20.5 67.5l341 2q10 0 10.5 5t1.5 16l1 821l-989 1v0zM75 888l874 -2l-1 -582l-871 3l-2 581v0z" />
    <glyph glyph-name="uniE915" unicode="&#xe915;" 
d="M283 933q-36 -9 -41 -24.5t-13 -30.5v-859q4 -26 15 -38t38 -16h463q26 -4 37 11.5t12 40.5v860q-3 17 -11.5 32t-37.5 22l-462 2v0zM447 878h124v-49h-124v49zM297 797h429v-700l-429 -1v701v0zM516 67q13 0 23 -10.5t10 -24.5v0v0v0v0q0 -15 -10 -25t-23 -10v0v0
q-14 0 -23.5 10t-9.5 25v0v0v0v0q0 14 9.5 24.5t23.5 10.5v0v0v0z" />
    <glyph glyph-name="uniE916" unicode="&#xe916;" 
d="M96 252h831v-138h-831v138v0zM1001 186q-1 -43 -43.5 -63.5t-78.5 2.5q-37 20 -29 64t44 58q32 15 69 -4.5t38 -56.5v0zM109 113q-37 -1 -65.5 34t-5.5 70q23 37 75 35.5t66 -46.5q9 -33 -13.5 -63t-56.5 -30v0zM96 509h831v-138h-831v138v0zM1001 443
q-1 -43 -43.5 -63.5t-78.5 2.5q-37 20 -29 64t44 58q32 15 69 -4.5t38 -56.5v0zM109 371q-37 -2 -65.5 33t-5.5 70q23 38 75 36t66 -47q9 -33 -13.5 -63t-56.5 -29zM96 760h831v-139h-831v139v0zM1001 694q-1 -43 -43.5 -63.5t-78.5 2.5q-37 19 -29 63.5t44 58.5
q32 15 69 -4.5t38 -56.5v0zM109 621q-37 -1 -65.5 34t-5.5 70q23 37 75 35.5t66 -46.5q9 -33 -13.5 -63t-56.5 -30z" />
    <glyph glyph-name="uniE917" unicode="&#xe917;" 
d="M780 424h-536q-11 0 -18 6.5t-7 17.5t7 17.5t18 6.5h536q11 0 18 -6.5t7 -17.5t-7 -17.5t-18 -6.5zM512 155q-11 0 -17.5 7t-6.5 18v536q0 11 6.5 18t17.5 7t17.5 -7t6.5 -18v-536q0 -11 -6.5 -18t-17.5 -7z" />
    <glyph glyph-name="uniE918" unicode="&#xe918;" 
d="M512 21l-392 391q-40 40 -60 91.5t-20 104.5t20 103t60 89v0q40 40 90.5 60t103 20t103 -20t91.5 -60l4 -5l4 5q41 40 91.5 60t103 20t103 -20t90.5 -60v0q40 -40 60 -91.5t20 -104.5t-20 -103t-60 -89l-392 -391v0z" />
    <glyph glyph-name="uniE919" unicode="&#xe919;" 
d="M20 936h243v-244h-243v244v0zM20 570h243v-244h-243v244v0zM20 204h243v-244h-243v244v0zM931 741h-487q-30 0 -51.5 21.5t-21.5 51.5q0 29 21.5 51t51.5 22h487q30 0 51.5 -22t21.5 -51q0 -30 -20 -51.5t-53 -21.5zM931 375h-487q-30 0 -51.5 22t-21.5 51t21.5 51
t51.5 22h487q30 0 51.5 -22t21.5 -51t-20 -51t-53 -22zM931 9h-487q-30 0 -51.5 22t-21.5 51q0 30 21.5 51.5t51.5 21.5h487q30 0 51.5 -21.5t21.5 -51.5q0 -29 -20 -51t-53 -22z" />
    <glyph glyph-name="uniE91A" unicode="&#xe91a;" 
d="M512 936l117 -371h371l-298 -239l112 -366l-302 220l-302 -220l112 366l-298 239h371z" />
    <glyph glyph-name="uniE91B" unicode="&#xe91b;" 
d="M477 949q-49 -4 -96 -16.5t-89 -33.5q-39 -19 -71.5 -42t-63.5 -54q-58 -58 -94 -129.5t-48 -153.5q-4 -25 -4.5 -66.5t2.5 -64.5q5 -44 17 -84t30 -77t41.5 -70.5t53.5 -62.5q31 -31 62.5 -54t68.5 -42q39 -20 80 -32t87 -19q21 -2 62.5 -1.5t62.5 3.5q43 6 82 18
t75.5 30t69 41.5t62.5 53.5q29 29 53 62t42 69t30 75.5t18 82.5q4 26 3.5 68t-4.5 70q-10 68 -37 129t-69 114q-14 18 -39.5 43t-43.5 39q-53 40 -112 65t-122 35q-20 3 -56 4.5t-53 -0.5v0zM538 725q68 -15 119 -59.5t72 -108.5q7 -24 9.5 -39.5t2.5 -42.5q0 -20 -0.5 -30
t-3.5 -22q-4 -18 -9.5 -32.5t-12.5 -28.5q-3 -6 -5 -10.5l-2 -4.5q-1 -1 18.5 -18.5t47.5 -41.5l67 -59l-5 -6q-2 -2 -12.5 -14.5t-23.5 -26.5q-23 -26 -27 -30t-7 -1q-20 17 -76 65t-57 49q-1 0 -4 -1t-6 -3q-17 -11 -40.5 -20t-46.5 -15q-18 -3 -48 -3t-48 4
q-39 8 -72 25.5t-60 45.5q-32 32 -50.5 71.5t-22.5 82t6 85t35 79.5q30 46 74.5 74.5t99.5 37.5q15 2 44 1.5t44 -3.5v0zM474 646q-55 -6 -97 -42t-54 -88q-4 -18 -5 -31t1 -28q6 -47 34.5 -84.5t70.5 -55.5q16 -6 30.5 -8.5t34.5 -2.5q49 0 90 25.5t62 69.5q9 19 12 32
t4 36q1 17 0.5 25t-3.5 20q-13 55 -56.5 91.5t-100.5 39.5q-6 1 -13 1h-10v0zM506 537v-42h85v-34h-85v-84h-35v84h-85v34h85v85h35v-43v0z" />
    <glyph glyph-name="uniE91C" unicode="&#xe91c;" 
d="M589 576h192v-192h-192v-448h-192v448h-192v192h192v81q0 58 18.5 121.5t53.5 104.5q32 39 76.5 58t98.5 19h133v-192h-137q-22 0 -38.5 -16.5t-16.5 -38.5v-137h4z" />
    <glyph glyph-name="uniE91D" unicode="&#xe91d;" 
d="M988 532h-150v150q0 8 -6 14t-14 6h-43q-8 0 -14 -6t-6 -14v-150h-150q-8 0 -14 -6t-6 -14v-43q0 -8 6 -14t14 -6h150v-150q0 -8 6 -14t14 -6h43q8 0 14 6t6 14v150h150q8 0 14 6t6 14v43q0 8 -6 14t-14 6zM484 400q-23 16 -41.5 36.5t-19.5 28.5q0 14 6 24.5t37 35.5
q39 31 61 70.5t22 82.5q0 40 -11.5 74t-31.5 58h21q3 0 6.5 1t6.5 3l60 43q5 4 7.5 10.5t-0.5 13.5q-3 6 -8 10t-12 4h-266q-21 0 -43 -4t-43 -10q-72 -25 -117.5 -81t-45.5 -118q0 -45 16.5 -83.5t45 -66.5t68 -44.5t85.5 -16.5l-2 -14t-1 -14q0 -13 3.5 -26.5t10.5 -25.5
h-1.5h-2.5q-44 0 -85 -10.5t-75.5 -29t-61 -45t-41.5 -58.5q-8 -16 -12.5 -33t-4.5 -33q0 -17 4.5 -32.5t12.5 -29.5q19 -34 58.5 -60t94.5 -39q29 -7 59.5 -11t61.5 -4q29 0 56 4t53 11q78 23 124.5 76t46.5 119q0 61 -22.5 103t-78.5 81v0zM152 205q0 46 50.5 81t117.5 35
h1q15 0 29 -2.5t27 -6.5q5 -3 9.5 -6.5t9.5 -6.5q31 -22 50.5 -38.5t24.5 -39.5q2 -5 2 -10.5v-10.5q0 -59 -43 -87.5t-128 -28.5q-63 1 -106.5 36t-43.5 85v0zM233 790q11 12 24.5 19t29.5 7h2q43 -2 79.5 -44.5t45.5 -100.5q4 -32 -2.5 -61.5t-23.5 -48.5
q-11 -12 -24.5 -18.5t-29.5 -6.5v0v0h-2q-43 1 -79.5 44.5t-44.5 101.5q-4 34 2.5 62.5t22.5 45.5v0z" />
    <glyph glyph-name="uniE91E" unicode="&#xe91e;" 
d="M512 805q45 0 77 -32t32 -77t-32 -77.5t-77 -32.5t-77.5 32t-32.5 78q0 45 32.5 77t77.5 32v0v0v0zM512 431q54 0 102.5 21t84 57t56.5 84t21 103q0 54 -21 102.5t-56.5 84t-84 56.5t-102.5 21q-55 0 -103 -21t-84 -56.5t-56.5 -84t-20.5 -102.5q0 -55 20.5 -103
t56.5 -84t84 -57t103 -21v0zM619 216q40 9 78.5 25t74.5 39q27 17 34 48t-10 58q-17 28 -48 35t-58 -10q-41 -26 -86.5 -38.5t-92 -12.5t-92 12.5t-85.5 38.5q-27 17 -58.5 10t-48.5 -35q-17 -27 -10 -58t34 -48q36 -23 74.5 -39t79.5 -25l-148 -148q-23 -22 -23 -54.5
t23 -54.5q11 -12 25.5 -17.5t29.5 -5.5q14 0 28.5 6t25.5 17l146 145l145 -145q22 -23 54.5 -23t54.5 23q23 22 23 54.5t-23 54.5z" />
    <glyph glyph-name="uniE91F" unicode="&#xe91f;" 
d="M509 909v0q51 0 99.5 -10.5t94.5 -30.5q39 -18 74 -43t66 -56q32 -32 56.5 -69t40.5 -77t24.5 -83.5t8.5 -88.5q0 -96 -36 -180t-98.5 -146t-146.5 -98t-180 -36t-180 35.5t-146.5 97t-98.5 145t-36 179.5q-1 93 33.5 176t95.5 145t143 98.5t175 37.5h7l4 4v0zM512 960
q-5 0 -8 -0.5t-6 -2.5q-106 -3 -198 -45.5t-159.5 -114t-105.5 -166t-35 -200.5t46 -198t115 -159.5t167 -104.5t201 -33q104 3 194 44t157 110.5t105.5 161.5t38.5 196q0 50 -9.5 98t-28 93.5t-46 86.5t-63.5 77q-33 36 -71.5 64t-81.5 49q-49 20 -102.5 32t-109.5 12v0z
" />
    <glyph glyph-name="uniE920" unicode="&#xe920;" 
d="M881 591l-41 -41l75 -75h-915v-54h915l-75 -75l41 -41l143 143z" />
  </font>
</defs>
</svg>
