<svg xmlns="http://www.w3.org/2000/svg" viewBox="0 0 34 34"><defs><style>.cls-1{fill:#00dbd8;}.cls-2{fill:#212e28;}</style></defs><title>logotip_onions</title><g id="Слой_2" data-name="Слой 2"><g id="Слой_1-2" data-name="Слой 1"><circle class="cls-1" cx="17" cy="17" r="17"/><path class="cls-2" d="M20.41,21.16a2.6,2.6,0,0,0-.15-.92,1.82,1.82,0,0,0-.56-.74,4.62,4.62,0,0,0-1.11-.65,17.12,17.12,0,0,0-1.82-.65,17.56,17.56,0,0,1-2.25-.83,7.77,7.77,0,0,1-1.78-1.09,4.67,4.67,0,0,1-1.17-1.43A3.94,3.94,0,0,1,11.15,13a4.14,4.14,0,0,1,.44-1.9,4.5,4.5,0,0,1,1.24-1.5,5.89,5.89,0,0,1,1.91-1,8.14,8.14,0,0,1,2.46-.35,7.57,7.57,0,0,1,2.59.42A5.8,5.8,0,0,1,21.73,9.8a4.93,4.93,0,0,1,1.21,1.66,4.87,4.87,0,0,1,.42,2h-3a3.26,3.26,0,0,0-.19-1.14,2.37,2.37,0,0,0-.59-.9,2.72,2.72,0,0,0-1-.59,4.42,4.42,0,0,0-1.44-.21,4.67,4.67,0,0,0-1.36.18,2.72,2.72,0,0,0-1,.49,1.94,1.94,0,0,0-.56.75,2.4,2.4,0,0,0-.18.94,1.88,1.88,0,0,0,.9,1.58,9.55,9.55,0,0,0,2.74,1.17,15.86,15.86,0,0,1,2.5.94A7.16,7.16,0,0,1,22,17.83a4.21,4.21,0,0,1,1,1.46,4.72,4.72,0,0,1,.34,1.83,4.3,4.3,0,0,1-.43,1.94,4.14,4.14,0,0,1-1.22,1.46,5.72,5.72,0,0,1-1.92.93,9.1,9.1,0,0,1-2.51.32,9,9,0,0,1-2.43-.33,6.86,6.86,0,0,1-2.14-1,5.25,5.25,0,0,1-1.53-1.68,4.66,4.66,0,0,1-.58-2.37h3a3.1,3.1,0,0,0,.29,1.39,2.59,2.59,0,0,0,.79.95,3.3,3.3,0,0,0,1.18.54,6,6,0,0,0,1.46.17,3.66,3.66,0,0,0,2.33-.63A2,2,0,0,0,20.41,21.16Z"/></g></g></svg>