<svg xmlns="http://www.w3.org/2000/svg" viewBox="0 0 118.9 18.23"><defs><style>.cls-1{fill:#212e28;}.cls-2{fill:#00dbd8;}</style></defs><title>text_logo_onions</title><g id="Слой_2" data-name="Слой 2"><g id="Слой_1-2" data-name="Слой 1"><path class="cls-1" d="M4.93,2.24V5.32H7.17V7.43H4.93v7.08a2.19,2.19,0,0,0,.09.7.92.92,0,0,0,.27.42,1,1,0,0,0,.42.2,2.49,2.49,0,0,0,.53.05,3.85,3.85,0,0,0,.57,0l.43-.08V18q-.34.09-.79.18a5.76,5.76,0,0,1-1.08.09A4.38,4.38,0,0,1,4.06,18a2.59,2.59,0,0,1-1-.61,2.83,2.83,0,0,1-.69-1.1,4.92,4.92,0,0,1-.25-1.66V7.43H0V5.32H2.09V2.24Z"/><path class="cls-1" d="M17.75,16.76a4,4,0,0,1-1.48,1.09,5.15,5.15,0,0,1-2.09.39A5.22,5.22,0,0,1,12.48,18a3.3,3.3,0,0,1-1.32-.83,3.85,3.85,0,0,1-.86-1.46,6.71,6.71,0,0,1-.3-2.15V5.32h2.85v8.23A3.39,3.39,0,0,0,13,14.69a2,2,0,0,0,.44.73,1.52,1.52,0,0,0,.64.39,2.59,2.59,0,0,0,.76.11,3.5,3.5,0,0,0,1.78-.4,2.54,2.54,0,0,0,1-1.09V5.32H20.5V18H17.82Z"/><path class="cls-1" d="M23.59,11.57a9.47,9.47,0,0,1,.35-2.64,6.19,6.19,0,0,1,1-2.05,4.43,4.43,0,0,1,3.66-1.79,4.46,4.46,0,0,1,1.86.36,4.1,4.1,0,0,1,1.4,1V0H34.7V18H32.12L32,16.69a4.26,4.26,0,0,1-1.45,1.14,4.47,4.47,0,0,1-2,.4,4.36,4.36,0,0,1-2.07-.49,4.68,4.68,0,0,1-1.56-1.34,6.37,6.37,0,0,1-1-2,8.92,8.92,0,0,1-.35-2.56Zm2.85.25a7.63,7.63,0,0,0,.16,1.59,4.11,4.11,0,0,0,.5,1.31,2.59,2.59,0,0,0,.88.88,2.51,2.51,0,0,0,1.31.32,2.7,2.7,0,0,0,1.58-.43,3.06,3.06,0,0,0,1-1.13V8.94a2.9,2.9,0,0,0-1-1.11,2.75,2.75,0,0,0-1.55-.41A2.51,2.51,0,0,0,28,7.75a2.63,2.63,0,0,0-.89.89A4.2,4.2,0,0,0,26.6,10a7.59,7.59,0,0,0-.16,1.61Z"/><path class="cls-1" d="M38.39,2A1.51,1.51,0,0,1,38.81.94,1.57,1.57,0,0,1,40,.5a1.59,1.59,0,0,1,1.2.43A1.5,1.5,0,0,1,41.62,2,1.47,1.47,0,0,1,41.2,3.1a1.6,1.6,0,0,1-1.2.43,1.58,1.58,0,0,1-1.19-.43A1.48,1.48,0,0,1,38.39,2Zm3,16H38.57V5.32h2.85Z"/><path class="cls-2" d="M44.7,11.54A7.84,7.84,0,0,1,45.11,9a6.08,6.08,0,0,1,1.16-2,5.32,5.32,0,0,1,1.85-1.36,6,6,0,0,1,2.47-.49,6.06,6.06,0,0,1,2.5.49,5.29,5.29,0,0,1,1.86,1.36,6,6,0,0,1,1.15,2,7.94,7.94,0,0,1,.4,2.56v.25a8,8,0,0,1-.4,2.57,5.93,5.93,0,0,1-1.15,2,5.27,5.27,0,0,1-1.85,1.35,6.59,6.59,0,0,1-5,0,5.27,5.27,0,0,1-1.85-1.35,6,6,0,0,1-1.16-2,7.89,7.89,0,0,1-.4-2.57Zm2.85.25a7.18,7.18,0,0,0,.18,1.62,4,4,0,0,0,.55,1.33A2.65,2.65,0,0,0,50.61,16a2.63,2.63,0,0,0,2.31-1.22,4.22,4.22,0,0,0,.55-1.33,7,7,0,0,0,.18-1.62v-.25a6.83,6.83,0,0,0-.18-1.6,4.14,4.14,0,0,0-.56-1.32,2.87,2.87,0,0,0-1-.91,2.68,2.68,0,0,0-1.38-.34,2.61,2.61,0,0,0-1.37.34,2.91,2.91,0,0,0-.94.91,4,4,0,0,0-.55,1.32,7,7,0,0,0-.18,1.6Z"/><path class="cls-2" d="M62.26,5.32l.08,1.46A4.64,4.64,0,0,1,64,5.53,4.8,4.8,0,0,1,66,5.09a5.15,5.15,0,0,1,1.66.25A3.06,3.06,0,0,1,69,6.15a3.78,3.78,0,0,1,.81,1.46,7.29,7.29,0,0,1,.29,2.19V18H67.22V9.79a3.62,3.62,0,0,0-.15-1.11,1.8,1.8,0,0,0-.43-.73,1.61,1.61,0,0,0-.7-.4,3.37,3.37,0,0,0-1-.12,2.75,2.75,0,0,0-1.53.42,3.07,3.07,0,0,0-1,1.14v9H59.58V5.32Z"/><path class="cls-2" d="M73.7,2A1.51,1.51,0,0,1,74.11.94,1.57,1.57,0,0,1,75.3.5a1.59,1.59,0,0,1,1.2.43A1.5,1.5,0,0,1,76.92,2,1.47,1.47,0,0,1,76.5,3.1a1.6,1.6,0,0,1-1.2.43,1.58,1.58,0,0,1-1.19-.43A1.48,1.48,0,0,1,73.7,2Zm3,16H73.87V5.32h2.85Z"/><path class="cls-2" d="M80,11.54A7.84,7.84,0,0,1,80.41,9a6.08,6.08,0,0,1,1.16-2,5.32,5.32,0,0,1,1.85-1.36,6,6,0,0,1,2.47-.49,6.06,6.06,0,0,1,2.5.49,5.29,5.29,0,0,1,1.86,1.36A6,6,0,0,1,91.4,9a7.94,7.94,0,0,1,.4,2.56v.25a8,8,0,0,1-.4,2.57,5.93,5.93,0,0,1-1.15,2,5.27,5.27,0,0,1-1.85,1.35,6.59,6.59,0,0,1-5,0,5.27,5.27,0,0,1-1.85-1.35,6,6,0,0,1-1.16-2,7.89,7.89,0,0,1-.4-2.57Zm2.85.25A7.18,7.18,0,0,0,83,13.41a4,4,0,0,0,.55,1.33A2.65,2.65,0,0,0,85.91,16a2.63,2.63,0,0,0,2.31-1.22,4.22,4.22,0,0,0,.55-1.33A7,7,0,0,0,89,11.79v-.25a6.83,6.83,0,0,0-.18-1.6,4.14,4.14,0,0,0-.56-1.32,2.87,2.87,0,0,0-1-.91,2.68,2.68,0,0,0-1.38-.34,2.61,2.61,0,0,0-1.37.34,2.91,2.91,0,0,0-.94.91A4,4,0,0,0,83,9.94a7,7,0,0,0-.18,1.6Z"/><path class="cls-2" d="M97.57,5.32l.08,1.46a4.64,4.64,0,0,1,1.61-1.25,4.8,4.8,0,0,1,2.09-.45,5.15,5.15,0,0,1,1.66.25,3.06,3.06,0,0,1,1.27.81,3.78,3.78,0,0,1,.81,1.46,7.29,7.29,0,0,1,.29,2.19V18h-2.85V9.79a3.62,3.62,0,0,0-.15-1.11,1.8,1.8,0,0,0-.43-.73,1.61,1.61,0,0,0-.7-.4,3.37,3.37,0,0,0-1-.12,2.75,2.75,0,0,0-1.53.42,3.07,3.07,0,0,0-1,1.14v9H94.88V5.32Z"/><path class="cls-2" d="M116.1,14.55A1.6,1.6,0,0,0,116,14a1.16,1.16,0,0,0-.39-.49,3.15,3.15,0,0,0-.83-.43,9.61,9.61,0,0,0-1.39-.37,12.34,12.34,0,0,1-1.86-.53,5.73,5.73,0,0,1-1.44-.77,3.33,3.33,0,0,1-.93-1.06,2.88,2.88,0,0,1-.33-1.41,3.31,3.31,0,0,1,.34-1.47,3.66,3.66,0,0,1,1-1.22,4.88,4.88,0,0,1,1.55-.84,6.26,6.26,0,0,1,2-.31,6.78,6.78,0,0,1,2.13.31,4.85,4.85,0,0,1,1.6.86,3.66,3.66,0,0,1,1.35,2.88H116a1.87,1.87,0,0,0-.14-.71,1.77,1.77,0,0,0-.42-.62,2,2,0,0,0-.7-.43,2.71,2.71,0,0,0-1-.16,2.93,2.93,0,0,0-.94.13,2.08,2.08,0,0,0-.66.35,1.38,1.38,0,0,0-.39.5,1.46,1.46,0,0,0-.13.6,1.29,1.29,0,0,0,.12.56,1.14,1.14,0,0,0,.42.45,3.46,3.46,0,0,0,.8.37,11.89,11.89,0,0,0,1.27.33,15,15,0,0,1,2,.55,5.58,5.58,0,0,1,1.48.77,3.13,3.13,0,0,1,.92,1.08,3.22,3.22,0,0,1,.32,1.48,3.32,3.32,0,0,1-.36,1.55,3.56,3.56,0,0,1-1,1.21,5,5,0,0,1-1.62.79,7.41,7.41,0,0,1-2.11.28,6.64,6.64,0,0,1-2.3-.37,5.28,5.28,0,0,1-1.68-1,4,4,0,0,1-1-1.35,3.67,3.67,0,0,1-.35-1.54h2.77a2.18,2.18,0,0,0,.27,1,2,2,0,0,0,.6.64,2.51,2.51,0,0,0,.82.36,4,4,0,0,0,.94.11,2.88,2.88,0,0,0,1.71-.43A1.32,1.32,0,0,0,116.1,14.55Z"/></g></g></svg>