<svg xmlns="http://www.w3.org/2000/svg" viewBox="0 0 512 512"><defs><style>.cls-1{fill:#4fb0d6;}.cls-2{fill:#ececec;}.cls-3{fill:#d6d4d4;}.cls-4{fill:#fff;}</style></defs><title>tele</title><g id="Слой_2" data-name="Слой 2"><g id="Слой_1-2" data-name="Слой 1"><path class="cls-1" d="M256,0C397.38,0,512,114.61,512,256S397.38,512,256,512,0,397.38,0,256,114.61,0,256,0Z"/><path class="cls-2" d="M380.26,109.05a8.54,8.54,0,0,0-8.4-.68L96.78,236.43a13.45,13.45,0,0,0,.3,24.52L350.69,371.41a13.58,13.58,0,0,0,19-11.45L384,116.61a8.53,8.53,0,0,0-3.72-7.56Z"/><polygon class="cls-3" points="171.63 293.42 188.77 408 379.17 108.43 171.63 293.42 171.63 293.42"/><path class="cls-4" d="M371.87,108.37,96.78,236.43a13.45,13.45,0,0,0,.3,24.52l74.56,32.47,207.54-185a8.53,8.53,0,0,0-7.3-.06Z"/><polygon class="cls-2" points="211.42 310.75 188.77 408 379.17 108.43 211.42 310.75 211.42 310.75"/><path class="cls-4" d="M380.26,109.05a8.25,8.25,0,0,0-1.1-.62L211.42,310.75l139.27,60.66a13.58,13.58,0,0,0,19-11.45L384,116.61a8.53,8.53,0,0,0-3.72-7.56Z"/></g></g></svg>